<svg width="1920" height="280" fill="none" xmlns="http://www.w3.org/2000/svg"><path d="M1920 2.047H0v277.117h1920V2.047Z" fill="#FEEFEE"/><path d="M1.5 3.048a1.5 1.5 0 1 0 0-3 1.5 1.5 0 0 0 0 3ZM16.5 3.048a1.5 1.5 0 1 0 0-3 1.5 1.5 0 0 0 0 3ZM31.5 3.048a1.5 1.5 0 1 0 0-3 1.5 1.5 0 0 0 0 3ZM46.5 3.048a1.5 1.5 0 1 0 0-3 1.5 1.5 0 0 0 0 3ZM61.5 3.048a1.5 1.5 0 1 0 0-3 1.5 1.5 0 0 0 0 3ZM76.5 3.048a1.5 1.5 0 1 0 0-3 1.5 1.5 0 0 0 0 3ZM91.5 3.048a1.5 1.5 0 1 0 0-3 1.5 1.5 0 0 0 0 3ZM106.5 3.048a1.5 1.5 0 1 0-.001-3.001 1.5 1.5 0 0 0 .001 3ZM121.5 3.048a1.5 1.5 0 1 0-.001-3.001 1.5 1.5 0 0 0 .001 3ZM136.5 3.048a1.5 1.5 0 1 0-.001-3.001 1.5 1.5 0 0 0 .001 3ZM1.5 18.054a1.5 1.5 0 1 0 0-3 1.5 1.5 0 0 0 0 3ZM16.5 18.054a1.5 1.5 0 1 0 0-3 1.5 1.5 0 0 0 0 3ZM31.5 18.054a1.5 1.5 0 1 0 0-3 1.5 1.5 0 0 0 0 3ZM46.5 18.054a1.5 1.5 0 1 0 0-3 1.5 1.5 0 0 0 0 3ZM61.5 18.054a1.5 1.5 0 1 0 0-3 1.5 1.5 0 0 0 0 3ZM76.5 18.054a1.5 1.5 0 1 0 0-3 1.5 1.5 0 0 0 0 3ZM91.5 18.054a1.5 1.5 0 1 0 0-3 1.5 1.5 0 0 0 0 3ZM106.5 18.054a1.5 1.5 0 1 0-.001-3.001 1.5 1.5 0 0 0 .001 3.001ZM121.5 18.054a1.5 1.5 0 1 0-.001-3.001 1.5 1.5 0 0 0 .001 3.001ZM136.5 18.054a1.5 1.5 0 1 0-.001-3.001 1.5 1.5 0 0 0 .001 3.001ZM1.5 33.06a1.5 1.5 0 1 0 0-3 1.5 1.5 0 0 0 0 3ZM16.5 33.06a1.5 1.5 0 1 0 0-3 1.5 1.5 0 0 0 0 3ZM31.5 33.06a1.5 1.5 0 1 0 0-3 1.5 1.5 0 0 0 0 3ZM46.5 33.06a1.5 1.5 0 1 0 0-3 1.5 1.5 0 0 0 0 3ZM61.5 33.06a1.5 1.5 0 1 0 0-3 1.5 1.5 0 0 0 0 3ZM76.5 33.06a1.5 1.5 0 1 0 0-3 1.5 1.5 0 0 0 0 3ZM91.5 33.06a1.5 1.5 0 1 0 0-3 1.5 1.5 0 0 0 0 3ZM106.5 33.06a1.5 1.5 0 1 0-.001-3 1.5 1.5 0 0 0 .001 3ZM121.5 33.06a1.5 1.5 0 1 0-.001-3 1.5 1.5 0 0 0 .001 3ZM136.5 33.06a1.5 1.5 0 1 0-.001-3 1.5 1.5 0 0 0 .001 3ZM1.5 48.067a1.5 1.5 0 1 0 0-3 1.5 1.5 0 0 0 0 3ZM16.5 48.067a1.5 1.5 0 1 0 0-3 1.5 1.5 0 0 0 0 3ZM31.5 48.067a1.5 1.5 0 1 0 0-3 1.5 1.5 0 0 0 0 3ZM46.5 48.067a1.5 1.5 0 1 0 0-3 1.5 1.5 0 0 0 0 3ZM61.5 48.067a1.5 1.5 0 1 0 0-3 1.5 1.5 0 0 0 0 3ZM76.5 48.067a1.5 1.5 0 1 0 0-3 1.5 1.5 0 0 0 0 3ZM91.5 48.067a1.5 1.5 0 1 0 0-3 1.5 1.5 0 0 0 0 3ZM106.5 48.067a1.5 1.5 0 1 0-.001-3.001 1.5 1.5 0 0 0 .001 3ZM121.5 48.067a1.5 1.5 0 1 0-.001-3.001 1.5 1.5 0 0 0 .001 3ZM136.5 48.067a1.5 1.5 0 1 0-.001-3.001 1.5 1.5 0 0 0 .001 3ZM1.5 63.073a1.5 1.5 0 1 0 0-3 1.5 1.5 0 0 0 0 3ZM16.5 63.073a1.5 1.5 0 1 0 0-3 1.5 1.5 0 0 0 0 3ZM31.5 63.073a1.5 1.5 0 1 0 0-3 1.5 1.5 0 0 0 0 3ZM46.5 63.073a1.5 1.5 0 1 0 0-3 1.5 1.5 0 0 0 0 3ZM61.5 63.073a1.5 1.5 0 1 0 0-3 1.5 1.5 0 0 0 0 3ZM76.5 63.073a1.5 1.5 0 1 0 0-3 1.5 1.5 0 0 0 0 3ZM91.5 63.073a1.5 1.5 0 1 0 0-3 1.5 1.5 0 0 0 0 3ZM106.5 63.073a1.5 1.5 0 1 0-.001-3.001 1.5 1.5 0 0 0 .001 3.001ZM121.5 63.073a1.5 1.5 0 1 0-.001-3.001 1.5 1.5 0 0 0 .001 3.001ZM136.5 63.073a1.5 1.5 0 1 0-.001-3.001 1.5 1.5 0 0 0 .001 3.001ZM1.5 78.08a1.5 1.5 0 1 0 0-3.001 1.5 1.5 0 0 0 0 3ZM16.5 78.08a1.5 1.5 0 1 0 0-3.001 1.5 1.5 0 0 0 0 3ZM31.5 78.08a1.5 1.5 0 1 0 0-3.001 1.5 1.5 0 0 0 0 3ZM46.5 78.08a1.5 1.5 0 1 0 0-3.001 1.5 1.5 0 0 0 0 3ZM61.5 78.08a1.5 1.5 0 1 0 0-3.001 1.5 1.5 0 0 0 0 3ZM76.5 78.08a1.5 1.5 0 1 0 0-3.001 1.5 1.5 0 0 0 0 3ZM91.5 78.08a1.5 1.5 0 1 0 0-3.001 1.5 1.5 0 0 0 0 3ZM106.5 78.08a1.5 1.5 0 1 0-.001-3.002 1.5 1.5 0 0 0 .001 3.001ZM121.5 78.08a1.5 1.5 0 1 0-.001-3.002 1.5 1.5 0 0 0 .001 3.001ZM136.5 78.08a1.5 1.5 0 1 0-.001-3.002 1.5 1.5 0 0 0 .001 3.001ZM1.5 93.086a1.5 1.5 0 1 0 0-3 1.5 1.5 0 0 0 0 3ZM16.5 93.086a1.5 1.5 0 1 0 0-3 1.5 1.5 0 0 0 0 3ZM31.5 93.086a1.5 1.5 0 1 0 0-3 1.5 1.5 0 0 0 0 3ZM46.5 93.086a1.5 1.5 0 1 0 0-3 1.5 1.5 0 0 0 0 3ZM61.5 93.086a1.5 1.5 0 1 0 0-3 1.5 1.5 0 0 0 0 3ZM76.5 93.086a1.5 1.5 0 1 0 0-3 1.5 1.5 0 0 0 0 3ZM91.5 93.086a1.5 1.5 0 1 0 0-3 1.5 1.5 0 0 0 0 3ZM106.5 93.086a1.5 1.5 0 1 0-.001-3.001 1.5 1.5 0 0 0 .001 3ZM121.5 93.086a1.5 1.5 0 1 0-.001-3.001 1.5 1.5 0 0 0 .001 3ZM136.5 93.086a1.5 1.5 0 1 0-.001-3.001 1.5 1.5 0 0 0 .001 3ZM1.5 108.092a1.5 1.5 0 1 0-.001-3.001 1.5 1.5 0 0 0 .001 3.001ZM16.5 108.092a1.5 1.5 0 1 0-.001-3.001 1.5 1.5 0 0 0 .001 3.001ZM31.5 108.092a1.5 1.5 0 1 0-.001-3.001 1.5 1.5 0 0 0 .001 3.001ZM46.5 108.092a1.5 1.5 0 1 0-.001-3.001 1.5 1.5 0 0 0 .001 3.001ZM61.5 108.092a1.5 1.5 0 1 0-.001-3.001 1.5 1.5 0 0 0 .001 3.001ZM76.5 108.092a1.5 1.5 0 1 0-.001-3.001 1.5 1.5 0 0 0 .001 3.001ZM91.5 108.092a1.5 1.5 0 1 0-.001-3.001 1.5 1.5 0 0 0 .001 3.001ZM106.5 108.092a1.5 1.5 0 1 0-.002-3.002 1.5 1.5 0 0 0 .002 3.002ZM121.5 108.092a1.5 1.5 0 1 0-.002-3.002 1.5 1.5 0 0 0 .002 3.002ZM136.5 108.092a1.5 1.5 0 1 0-.002-3.002 1.5 1.5 0 0 0 .002 3.002ZM1.5 123.098a1.5 1.5 0 1 0 0-3 1.5 1.5 0 0 0 0 3ZM16.5 123.098a1.5 1.5 0 1 0 0-3 1.5 1.5 0 0 0 0 3ZM31.5 123.098a1.5 1.5 0 1 0 0-3 1.5 1.5 0 0 0 0 3ZM46.5 123.098a1.5 1.5 0 1 0 0-3 1.5 1.5 0 0 0 0 3ZM61.5 123.098a1.5 1.5 0 1 0 0-3 1.5 1.5 0 0 0 0 3ZM76.5 123.098a1.5 1.5 0 1 0 0-3 1.5 1.5 0 0 0 0 3ZM91.5 123.098a1.5 1.5 0 1 0 0-3 1.5 1.5 0 0 0 0 3ZM106.5 123.098a1.5 1.5 0 1 0 0-3 1.5 1.5 0 0 0 0 3ZM121.5 123.098a1.5 1.5 0 1 0 0-3 1.5 1.5 0 0 0 0 3ZM136.5 123.098a1.5 1.5 0 1 0 0-3 1.5 1.5 0 0 0 0 3ZM1.5 138.105a1.5 1.5 0 1 0-.001-3.001 1.5 1.5 0 0 0 .001 3.001ZM16.5 138.105a1.5 1.5 0 1 0-.001-3.001 1.5 1.5 0 0 0 .001 3.001ZM31.5 138.105a1.5 1.5 0 1 0-.001-3.001 1.5 1.5 0 0 0 .001 3.001ZM46.5 138.105a1.5 1.5 0 1 0-.001-3.001 1.5 1.5 0 0 0 .001 3.001ZM61.5 138.105a1.5 1.5 0 1 0-.001-3.001 1.5 1.5 0 0 0 .001 3.001ZM76.5 138.105a1.5 1.5 0 1 0-.001-3.001 1.5 1.5 0 0 0 .001 3.001ZM91.5 138.105a1.5 1.5 0 1 0-.001-3.001 1.5 1.5 0 0 0 .001 3.001ZM106.5 138.105a1.5 1.5 0 1 0-.002-3.002 1.5 1.5 0 0 0 .002 3.002ZM121.5 138.105a1.5 1.5 0 1 0-.002-3.002 1.5 1.5 0 0 0 .002 3.002ZM136.5 138.105a1.5 1.5 0 1 0-.002-3.002 1.5 1.5 0 0 0 .002 3.002Z" fill="#DBE0E7"/><path d="M1815 36.062a4 4 0 0 0 4-4.002 4 4 0 1 0-8 0 4 4 0 0 0 4 4.002ZM1863 36.062a4 4 0 0 0 4-4.002 4 4 0 1 0-8 0 4 4 0 0 0 4 4.002ZM1911 36.062a4 4 0 0 0 4-4.002 4 4 0 1 0-8 0 4 4 0 0 0 4 4.002ZM1815 84.082a4 4 0 0 0 4-4.002 4 4 0 1 0-8 0 4 4 0 0 0 4 4.002ZM1863 84.082a4 4 0 0 0 4-4.002 4 4 0 1 0-8 0 4 4 0 0 0 4 4.002ZM1911 84.082a4 4 0 0 0 4-4.002 4 4 0 1 0-8 0 4 4 0 0 0 4 4.002ZM1815 132.102a4 4 0 0 0 4-4.001 4 4 0 1 0-8 0 4 4 0 0 0 4 4.001ZM1863 132.102a4 4 0 0 0 4-4.001 4 4 0 1 0-8 0 4 4 0 0 0 4 4.001ZM1911 132.102a4 4 0 0 0 4-4.001 4 4 0 1 0-8 0 4 4 0 0 0 4 4.001ZM1815 180.122a4 4 0 0 0 4-4.001 4 4 0 1 0-8 0 4 4 0 0 0 4 4.001ZM1863 180.122a4 4 0 0 0 4-4.001 4 4 0 1 0-8 0 4 4 0 0 0 4 4.001ZM1911 180.122a4 4 0 0 0 4-4.001 4 4 0 1 0-8 0 4 4 0 0 0 4 4.001ZM1815 228.143a4 4 0 0 0 4-4.002 4 4 0 1 0-8 0 4 4 0 0 0 4 4.002ZM1863 228.143a4 4 0 0 0 4-4.002 4 4 0 1 0-8 0 4 4 0 0 0 4 4.002ZM1911 228.143a4 4 0 0 0 4-4.002 4 4 0 1 0-8 0 4 4 0 0 0 4 4.002ZM1815 276.163a4 4 0 0 0 4-4.002 4 4 0 1 0-8 0 4 4 0 0 0 4 4.002ZM1863 276.163a4 4 0 0 0 4-4.002 4 4 0 1 0-8 0 4 4 0 0 0 4 4.002ZM1911 276.163a4 4 0 0 0 4-4.002 4 4 0 1 0-8 0 4 4 0 0 0 4 4.002Z" fill="#484271" fill-opacity=".09"/></svg>