<svg width="414" height="473" fill="none" xmlns="http://www.w3.org/2000/svg"><g filter="url('#filter0_d_662_835')"><path d="M26.993 22.525h359.514c1.325.002 2.595.44 3.531 1.22.936.78 1.462 1.836 1.462 2.938v419.866c0 1.101-.526 2.158-1.462 2.937-.936.78-2.206 1.219-3.531 1.22H26.993c-1.325-.001-2.595-.44-3.531-1.22-.936-.779-1.462-1.836-1.462-2.937V26.683c0-1.102.526-2.159 1.462-2.938.936-.78 2.206-1.218 3.531-1.22Z" fill="#DBDBDB"/></g><defs><filter id="filter0_d_662_835" x="0" y=".525" width="413.5" height="472.181" filterUnits="userSpaceOnUse" color-interpolation-filters="sRGB"><feFlood flood-opacity="0" result="BackgroundImageFix"/><feColorMatrix in="SourceAlpha" values="0 0 0 0 0 0 0 0 0 0 0 0 0 0 0 0 0 0 127 0" result="hardAlpha"/><feOffset/><feGaussianBlur stdDeviation="11"/><feColorMatrix values="0 0 0 0 0 0 0 0 0 0 0 0 0 0 0 0 0 0 0.25 0"/><feBlend in2="BackgroundImageFix" result="effect1_dropShadow_662_835"/><feBlend in="SourceGraphic" in2="effect1_dropShadow_662_835" result="shape"/></filter></defs></svg>