<svg width="414" height="463" fill="none" xmlns="http://www.w3.org/2000/svg"><g filter="url('#filter0_d_662_795')"><path d="M26.993 22.295h359.514c1.325.002 2.595.43 3.531 1.191.936.761 1.462 1.793 1.462 2.87v410.056c0 1.076-.526 2.107-1.462 2.869-.936.761-2.206 1.189-3.531 1.191H26.993c-1.325-.002-2.595-.43-3.531-1.191-.936-.762-1.462-1.793-1.462-2.869V26.355c0-1.076.526-2.108 1.462-2.869.936-.76 2.206-1.19 3.531-1.19Z" fill="#DBDBDB"/></g><defs><filter id="filter0_d_662_795" x="0" y=".295" width="413.5" height="462.177" filterUnits="userSpaceOnUse" color-interpolation-filters="sRGB"><feFlood flood-opacity="0" result="BackgroundImageFix"/><feColorMatrix in="SourceAlpha" values="0 0 0 0 0 0 0 0 0 0 0 0 0 0 0 0 0 0 127 0" result="hardAlpha"/><feOffset/><feGaussianBlur stdDeviation="11"/><feColorMatrix values="0 0 0 0 0 0 0 0 0 0 0 0 0 0 0 0 0 0 0.25 0"/><feBlend in2="BackgroundImageFix" result="effect1_dropShadow_662_795"/><feBlend in="SourceGraphic" in2="effect1_dropShadow_662_795" result="shape"/></filter></defs></svg>