<svg width="414" height="463" fill="none" xmlns="http://www.w3.org/2000/svg"><g filter="url('#filter0_d_662_775')"><path d="M27 22.295h360c1.327.002 2.599.43 3.536 1.191.937.761 1.464 1.793 1.464 2.87v410.056c0 1.076-.527 2.107-1.464 2.869-.937.761-2.209 1.189-3.536 1.191H27c-1.327-.002-2.599-.43-3.536-1.191-.938-.762-1.464-1.793-1.464-2.869V26.355c0-1.076.526-2.108 1.464-2.869.937-.76 2.21-1.19 3.536-1.19Z" fill="#DBDBDB"/></g><defs><filter id="filter0_d_662_775" x="0" y=".295" width="414" height="462.177" filterUnits="userSpaceOnUse" color-interpolation-filters="sRGB"><feFlood flood-opacity="0" result="BackgroundImageFix"/><feColorMatrix in="SourceAlpha" values="0 0 0 0 0 0 0 0 0 0 0 0 0 0 0 0 0 0 127 0" result="hardAlpha"/><feOffset/><feGaussianBlur stdDeviation="11"/><feColorMatrix values="0 0 0 0 0 0 0 0 0 0 0 0 0 0 0 0 0 0 0.25 0"/><feBlend in2="BackgroundImageFix" result="effect1_dropShadow_662_775"/><feBlend in="SourceGraphic" in2="effect1_dropShadow_662_775" result="shape"/></filter></defs></svg>